<svg xmlns="http://www.w3.org/2000/svg" viewBox="0 0 1200 760" role="img" aria-labelledby="title desc">
  <title id="title">Apercu du projet TaskFlow</title>
  <desc id="desc">Interface de tableau de bord minimaliste avec colonnes de taches.</desc>
  <rect width="1200" height="760" rx="40" fill="#f7f5ef"/>
  <circle cx="1010" cy="120" r="180" fill="#c6f1d6" opacity=".55"/>
  <circle cx="160" cy="620" r="220" fill="#2d5bff" opacity=".12"/>
  <rect x="96" y="88" width="1008" height="584" rx="28" fill="#ffffff" stroke="#e4e0d5"/>
  <rect x="136" y="132" width="232" height="36" rx="18" fill="#22252a"/>
  <rect x="136" y="208" width="288" height="384" rx="22" fill="#f4f2ec"/>
  <rect x="456" y="208" width="288" height="384" rx="22" fill="#f4f2ec"/>
  <rect x="776" y="208" width="288" height="384" rx="22" fill="#f4f2ec"/>
  <rect x="168" y="254" width="224" height="92" rx="16" fill="#ffffff"/>
  <rect x="488" y="254" width="224" height="132" rx="16" fill="#ffffff"/>
  <rect x="808" y="254" width="224" height="106" rx="16" fill="#ffffff"/>
  <rect x="168" y="374" width="224" height="120" rx="16" fill="#ffffff"/>
  <rect x="488" y="420" width="224" height="98" rx="16" fill="#ffffff"/>
  <rect x="808" y="392" width="224" height="126" rx="16" fill="#ffffff"/>
  <rect x="184" y="278" width="120" height="12" rx="6" fill="#2d5bff"/>
  <rect x="504" y="278" width="144" height="12" rx="6" fill="#8fd8a8"/>
  <rect x="824" y="278" width="132" height="12" rx="6" fill="#2d5bff"/>
</svg>
